<svg width="128" height="128" viewBox="0 0 128 128" fill="none" xmlns="http://www.w3.org/2000/svg">
    <path d="M96.7125 58.6667C99.8161 87.3359 112 96 112 96H16C16 96 32 84.6222 32 44.8C32 35.7473 35.3714 27.0653 41.3726 20.6641C47.3737 14.2628 55.5131 10.6667 64 10.6667C65.7991 10.6667 67.5825 10.8283 69.3333 11.1439" stroke="#666666" stroke-width="8" stroke-linecap="round" stroke-linejoin="round"/>
    <path d="M101 26C101 22.6862 98.3138 20 95 20C91.6862 20 89 22.6862 89 26C89 29.3138 91.6862 32 95 32C98.3138 32 101 29.3138 101 26Z" stroke="#FF8700" stroke-width="4" stroke-linecap="round" stroke-linejoin="round"/>
    <path d="M91.7908 10.7553L86.4896 12.9506L83 10L79 14L81.9659 17.4706L79.7395 22.8844L75 24.1294V28.038L79.8023 29.3018L82.0319 34.5912L79 38L83 42L86.5777 39.0932L91.8926 41.255L93 46H97L98.311 41.1978L103.599 38.9686L107 42L111 38L108.081 34.4176L110.225 29.206L115 28V24L110.226 22.791L108.031 17.4898C108.663 16.6063 111 14 111 14L107 10L103.499 12.9682L98.196 10.7722L96.9544 6.00026L93 6L91.7908 10.7553Z" stroke="#FF8700" stroke-width="4" stroke-linecap="round" stroke-linejoin="round"/>
    <path d="M73.2268 112C72.2891 113.616 70.9433 114.958 69.324 115.891C67.7047 116.824 65.8688 117.314 64.0001 117.314C62.1314 117.314 60.2955 116.824 58.6762 115.891C57.0569 114.958 55.7111 113.616 54.7734 112" stroke="#666666" stroke-width="8" stroke-linecap="round" stroke-linejoin="round"/>
</svg>
