<svg width="128" height="128" viewBox="0 0 128 128" fill="none" xmlns="http://www.w3.org/2000/svg">
    <path d="M96.7125 58.6667C99.8161 87.3359 112 96 112 96H16C16 96 32 84.6222 32 44.8C32 35.7473 35.3714 27.0653 41.3726 20.6641C47.3737 14.2628 55.5131 10.6667 64 10.6667C65.7991 10.6667 67.5825 10.8283 69.3333 11.1439" stroke="#666666" stroke-width="8" stroke-linecap="round" stroke-linejoin="round"/>
    <path d="M101.333 42.6667C110.17 42.6667 117.333 35.5032 117.333 26.6667C117.333 17.8301 110.17 10.6667 101.333 10.6667C92.4969 10.6667 85.3335 17.8301 85.3335 26.6667C85.3335 35.5032 92.4969 42.6667 101.333 42.6667Z" fill="#FF8700" stroke="#FF8700" stroke-width="8" stroke-linecap="round" stroke-linejoin="round"/>
    <path d="M73.2268 112C72.2891 113.616 70.9433 114.958 69.324 115.891C67.7047 116.824 65.8688 117.314 64.0001 117.314C62.1314 117.314 60.2955 116.824 58.6762 115.891C57.0569 114.958 55.7111 113.616 54.7734 112" stroke="#666666" stroke-width="8" stroke-linecap="round" stroke-linejoin="round"/>
</svg>
