<svg width="128" height="128" viewBox="0 0 128 128" fill="none" xmlns="http://www.w3.org/2000/svg">
    <path fill-rule="evenodd" clip-rule="evenodd" d="M72.881 12.0075C70.6137 16.3993 69.3333 21.3834 69.3333 26.6667C69.3333 42.7581 81.2106 56.0755 96.6766 58.3303C99.7208 87.2682 112 96 112 96H16C16 96 32 84.6222 32 44.8C32 35.7473 35.3714 27.0653 41.3726 20.6641C47.3737 14.2628 55.5131 10.6667 64 10.6667C67.0319 10.6667 70.0194 11.1256 72.881 12.0075Z" fill="#666666"/>
    <path d="M72.881 12.0075L76.4353 13.8424C76.9787 12.7899 77.0276 11.5506 76.5689 10.4585C76.1102 9.36635 75.191 8.53371 74.059 8.18486L72.881 12.0075ZM96.6766 58.3303L100.655 57.9118C100.463 56.0932 99.0632 54.6359 97.2537 54.3721L96.6766 58.3303ZM112 96V100C113.74 100 115.281 98.8746 115.81 97.2167C116.34 95.5588 115.736 93.7488 114.318 92.7402L112 96ZM16 96L13.6819 92.7402C12.2636 93.7488 11.6601 95.5588 12.1895 97.2167C12.7189 98.8746 14.2596 100 16 100V96ZM41.3726 20.6641L44.2907 23.3999L44.2907 23.3999L41.3726 20.6641ZM69.3267 10.1725C66.7734 15.1183 65.3333 20.7302 65.3333 26.6667H73.3333C73.3333 22.0367 74.454 17.6802 76.4353 13.8424L69.3267 10.1725ZM65.3333 26.6667C65.3333 44.773 78.6966 59.7513 96.0995 62.2884L97.2537 54.3721C83.7246 52.3997 73.3333 40.7432 73.3333 26.6667H65.3333ZM112 96C114.318 92.7402 114.32 92.7418 114.323 92.7434C114.323 92.7438 114.325 92.7454 114.327 92.7464C114.329 92.7483 114.332 92.7501 114.334 92.7518C114.339 92.7551 114.343 92.758 114.346 92.7603C114.353 92.765 114.356 92.7676 114.357 92.7681C114.358 92.7692 114.348 92.7618 114.328 92.7457C114.287 92.7136 114.203 92.6465 114.082 92.5417C113.839 92.3323 113.447 91.972 112.944 91.4387C111.939 90.3736 110.488 88.6113 108.918 85.9719C105.785 80.7063 102.121 71.8514 100.655 57.9118L92.6986 58.7488C94.2764 73.7471 98.2738 83.727 102.042 90.0618C103.922 93.2226 105.731 95.4518 107.124 96.9283C107.82 97.6658 108.41 98.2137 108.851 98.5948C109.072 98.7854 109.255 98.9341 109.395 99.044C109.465 99.0989 109.525 99.1442 109.573 99.18C109.597 99.1979 109.618 99.2135 109.636 99.2268C109.645 99.2334 109.654 99.2395 109.661 99.245C109.665 99.2478 109.669 99.2504 109.672 99.2528C109.674 99.2541 109.676 99.2558 109.677 99.2564C109.68 99.2581 109.682 99.2598 112 96ZM16 100H112V92H16V100ZM28 44.8C28 64.1629 24.114 76.3249 20.4386 83.5122C18.5971 87.1134 16.7909 89.5007 15.5093 90.9438C14.8674 91.6664 14.3543 92.1555 14.03 92.4437C13.8679 92.5879 13.7528 92.6819 13.6922 92.73C13.662 92.754 13.6454 92.7665 13.6433 92.7681C13.6423 92.7688 13.6449 92.7669 13.6513 92.7622C13.6545 92.7598 13.6587 92.7568 13.6638 92.7532C13.6663 92.7513 13.6691 92.7493 13.6721 92.7472C13.6736 92.7461 13.6761 92.7443 13.6768 92.7438C13.6793 92.742 13.6819 92.7402 16 96C18.3181 99.2598 18.3208 99.2579 18.3235 99.2559C18.3245 99.2552 18.3274 99.2532 18.3294 99.2518C18.3334 99.2489 18.3376 99.2459 18.3421 99.2426C18.351 99.2362 18.361 99.229 18.3719 99.221C18.3936 99.2051 18.4192 99.1862 18.4485 99.1642C18.507 99.1203 18.5802 99.064 18.6671 98.995C18.841 98.8569 19.0696 98.6677 19.345 98.423C19.8957 97.9334 20.6326 97.2225 21.4907 96.2562C23.2091 94.3215 25.4029 91.3755 27.5614 87.1545C31.886 78.6974 36 65.2593 36 44.8H28ZM38.4544 17.9283C31.7342 25.0966 28 34.7667 28 44.8H36C36 36.7278 39.0086 29.0341 44.2907 23.3999L38.4544 17.9283ZM64 6.66666C54.3659 6.66666 45.1829 10.7513 38.4544 17.9283L44.2907 23.3999C49.5646 17.7744 56.6603 14.6667 64 14.6667V6.66666ZM74.059 8.18486C70.8212 7.18705 67.4367 6.66666 64 6.66666V14.6667C66.6271 14.6667 69.2177 15.0642 71.703 15.8301L74.059 8.18486Z" fill="#666666"/>
    <path d="M101.333 42.6667C110.17 42.6667 117.333 35.5032 117.333 26.6667C117.333 17.8301 110.17 10.6667 101.333 10.6667C92.4969 10.6667 85.3335 17.8301 85.3335 26.6667C85.3335 35.5032 92.4969 42.6667 101.333 42.6667Z" fill="#FF8700" stroke="#FF8700" stroke-width="8" stroke-linecap="round" stroke-linejoin="round"/>
    <path d="M73.2268 112C72.2891 113.616 70.9433 114.958 69.324 115.891C67.7047 116.824 65.8688 117.314 64.0001 117.314C62.1314 117.314 60.2955 116.824 58.6762 115.891C57.0569 114.958 55.7111 113.616 54.7734 112" stroke="#666666" stroke-width="8" stroke-linecap="round" stroke-linejoin="round"/>
</svg>
